<?xml version="1.0" encoding="utf-8"?>
<!-- Generator: Adobe Illustrator 26.0.1, SVG Export Plug-In . SVG Version: 6.00 Build 0)  -->
<svg version="1.1" id="图层_1" xmlns="http://www.w3.org/2000/svg" xmlns:xlink="http://www.w3.org/1999/xlink" x="0px" y="0px"
	 viewBox="0 0 128 36" style="enable-background:new 0 0 128 36;" xml:space="preserve">
<style type="text/css">
	.st0{fill:#FFFFFF;}
</style>
<g>
	<g>
		<g>
			<path class="st0" d="M55.4,4.4L53.6,0h3.6l2.4,5.9h-1.7l1.7,4.4H56l-2.4-6H55.4z M56,11.6h3.5l-2.4,7.6h-3.6L56,11.6z M70.1,17.3
				h1c0.2,0,0.3-0.1,0.4-0.2c0.1-0.1,0.2-0.3,0.2-0.4v-0.1h-8.5c-0.6,0-1.1-0.2-1.5-0.7c-0.4-0.4-0.6-1-0.6-1.6v-2h-1V9.9h1V5h13.9
				v4.9h1.2v2.3h-1.2v2.2h0.8v2.1h-0.8V17c0,0.7-0.2,1.2-0.7,1.6c-0.4,0.3-0.8,0.4-1.3,0.4h-3.8L70.1,17.3z M62,0h3.8l-0.6,1.3H76
				v2.6H60.3L62,0z M66.7,9.9l-0.5-2h2.6l0.6,2h2.3V7.3h-7.6v2.6H66.7z M64.4,14.3c0.2,0.2,0.4,0.2,0.6,0.2h1.6l-0.4-1.6h2.6
				l0.5,1.6h2.4v-2.2h-7.6v1.4C64.2,13.9,64.2,14.1,64.4,14.3z"/>
			<path class="st0" d="M79.6,6.1h9V3.9h-9.6V1.3h9.6V0.1h3.1v1.2h9.6v2.6h-9.6v2.2h9v2.6H79.6V6.1z M80.1,10.1h20.2v7
				c0,0.5-0.2,1-0.6,1.4c-0.4,0.4-0.8,0.6-1.3,0.6H80.1V10.1z M96.6,16.5c0.1,0,0.3-0.1,0.4-0.2c0.1-0.1,0.2-0.3,0.2-0.4v-3.3H83.3
				v3.9H96.6z"/>
			<path class="st0" d="M106,3.7h2.2l-0.9,3.9h1.6V2.7h-4.1V0.1h7.7v2.6h-0.9v4.8h0.9v2.6h-0.9v6.5c0,0.7-0.2,1.3-0.7,1.8
				c-0.5,0.5-1,0.7-1.7,0.7h-1.9l0.8-2.2h0.3c0.2,0,0.3-0.1,0.4-0.2c0.1-0.1,0.2-0.3,0.2-0.4v-6.1h-4.4L106,3.7z M106.4,10.8h2.2
				l-1.8,8.3h-2.2L106.4,10.8z M114.2,0.1h3.1l-1.7,4.1h0.7v14.9h-2.8V5.2H112L114.2,0.1z M116.8,16.5h3.4v-2.4h-3.4v-2.6h3.4V9.1
				h-3.4V6.5h3.4V4.2h-3.4V1.6h3.3l-0.6-1.5h3.3l0.6,1.5h3.2v2.6h-3.3v2.4h3.3v2.6h-3.3v2.4h3.3v2.6h-3.3v2.4h3.3v2.6h-9.8V16.5z"/>
		</g>
	</g>
	<rect x="27.4" y="18" transform="matrix(-1 -1.224647e-16 1.224647e-16 -1 68.6178 54)" class="st0" width="13.8" height="18"/>
	<rect transform="matrix(-1 -1.224647e-16 1.224647e-16 -1 13.8461 36)" class="st0" width="13.8" height="36"/>
	<path class="st0" d="M36.5,21.3l4.7-3.3V1h-2.1c-4.2,8.5-14.4,16.3-26.1,16.3v1.8H32L36.5,21.3z"/>
	<path class="st0" d="M64.7,23.8v10.4c0,0.8-0.6,1.4-1.4,1.4h0c-0.8,0-1.4-0.6-1.4-1.4v-4.1h-5v4.1c0,0.8-0.6,1.4-1.4,1.4h0
		c-0.8,0-1.4-0.6-1.4-1.4V23.8c0-0.8,0.6-1.4,1.4-1.4h0c0.8,0,1.4,0.6,1.4,1.4v4h5v-4c0-0.8,0.6-1.4,1.4-1.4h0
		C64.1,22.4,64.7,23,64.7,23.8z"/>
	<path class="st0" d="M69.5,29.8L66,24.5c-0.6-0.9,0.1-2.1,1.1-2.1l0,0c0.5,0,0.9,0.3,1.1,0.7l2.6,4.5l2.7-4.5
		c0.2-0.4,0.7-0.6,1.1-0.6h0c1.1,0,1.7,1.2,1.1,2.1l-3.6,5.4v4.3c0,0.7-0.6,1.4-1.3,1.4h-0.1c-0.7,0-1.3-0.6-1.3-1.4V29.8z"/>
	<path class="st0" d="M78.6,22.4L78.6,22.4c0.8,0,1.4,0.6,1.4,1.4v6c0,0.9,0.1,1.6,0.1,1.9c0.1,0.6,0.4,1,0.9,1.2
		c0.5,0.2,1.3,0.3,2.5,0.3H85c0.6,0,1.2,0.5,1.2,1.2v0c0,0.7-0.5,1.2-1.2,1.2h-1.8c-1.4,0-2.4-0.1-3-0.2c-1.4-0.4-2.3-1.3-2.7-2.8
		c-0.1-0.6-0.2-1.5-0.2-2.8v-6C77.3,23,77.9,22.4,78.6,22.4z"/>
	<path class="st0" d="M92.8,27.7h4c0.7,0,1.2,0.5,1.2,1.2v5c0,0.9-0.7,1.6-1.6,1.6h-4.2c-1,0-1.8-0.1-2.4-0.2
		c-0.6-0.2-1.1-0.4-1.6-0.8c-1.4-1.1-2-2.9-2-5.5c0-1.7,0.3-3.1,1-4.3c0.5-0.8,1.1-1.4,2-1.8c0.8-0.4,1.9-0.6,3.2-0.6h4.5
		c0.6,0,1.2,0.5,1.2,1.2v0c0,0.7-0.5,1.2-1.2,1.2h-4.2c-1.2,0-2,0.3-2.5,0.8c-0.6,0.6-0.9,1.7-0.9,3.3c0,0.8,0.1,1.5,0.2,2.2
		c0.2,0.6,0.4,1.1,0.7,1.4c0.2,0.3,0.6,0.5,1,0.6c0.4,0.1,1,0.2,1.6,0.2h2.5v-3.1h-2.5c-0.6,0-1.2-0.5-1.2-1.2v0
		C91.7,28.3,92.2,27.7,92.8,27.7z"/>
	<path class="st0" d="M110.1,23.5L110.1,23.5c0,0.7-0.5,1.2-1.2,1.2h-2.4c-0.9,0-1.6,0.1-2,0.2c-0.4,0.1-0.8,0.4-1.1,0.8
		c-0.2,0.3-0.3,0.5-0.4,0.8c-0.1,0.3-0.1,0.7-0.2,1.3h6.1c0.6,0,1.2,0.5,1.2,1.2v0c0,0.7-0.5,1.2-1.2,1.2h-6.1
		c0.1,1.1,0.4,1.9,1,2.4c0.6,0.4,1.5,0.7,2.8,0.7h2.3c0.6,0,1.2,0.5,1.2,1.2v0c0,0.7-0.5,1.2-1.2,1.2h-2.4c-1,0-1.8-0.1-2.6-0.2
		c-1.2-0.2-2.1-0.7-2.8-1.6c-1-1.2-1.5-2.9-1.5-4.9c0-2.3,0.7-4.1,2.1-5.4c0.5-0.4,1-0.7,1.5-0.9c0.5-0.2,1.3-0.3,2.2-0.3h3.5
		C109.5,22.4,110.1,22.9,110.1,23.5z"/>
	<ellipse class="st0" cx="124.4" cy="23.4" rx="2.2" ry="2.3"/>
	<path class="st0" d="M124.4,26.6c-0.6,0-1.2-0.2-1.7-0.5V30l-3-7c-0.3-0.8-1.1-1.3-1.9-1.3h0c-0.8,0-1.6,0.5-1.9,1.3l-4.3,10.2
		c-0.5,1.2,0.3,2.4,1.6,2.4l0,0c0.7,0,1.3-0.4,1.6-1.1l3-7.2l2.7,6.5c0.5,1.1,1.5,1.8,2.7,1.8l0,0c1.6,0,2.9-1.3,2.9-3v-6.5
		C125.6,26.4,125,26.6,124.4,26.6z"/>
	<g>
		<g>
			<path class="st0" d="M55.4,4.4L53.6,0h3.6l2.4,5.9h-1.7l1.7,4.4H56l-2.4-6H55.4z M56,11.6h3.5l-2.4,7.6h-3.6L56,11.6z M70.1,17.3
				h1c0.2,0,0.3-0.1,0.4-0.2c0.1-0.1,0.2-0.3,0.2-0.4v-0.1h-8.5c-0.6,0-1.1-0.2-1.5-0.7c-0.4-0.4-0.6-1-0.6-1.6v-2h-1V9.9h1V5h13.9
				v4.9h1.2v2.3h-1.2v2.2h0.8v2.1h-0.8V17c0,0.7-0.2,1.2-0.7,1.6c-0.4,0.3-0.8,0.4-1.3,0.4h-3.8L70.1,17.3z M62,0h3.8l-0.6,1.3H76
				v2.6H60.3L62,0z M66.7,9.9l-0.5-2h2.6l0.6,2h2.3V7.3h-7.6v2.6H66.7z M64.4,14.3c0.2,0.2,0.4,0.2,0.6,0.2h1.6l-0.4-1.6h2.6
				l0.5,1.6h2.4v-2.2h-7.6v1.4C64.2,13.9,64.2,14.1,64.4,14.3z"/>
			<path class="st0" d="M79.6,6.1h9V3.9h-9.6V1.3h9.6V0.1h3.1v1.2h9.6v2.6h-9.6v2.2h9v2.6H79.6V6.1z M80.1,10.1h20.2v7
				c0,0.5-0.2,1-0.6,1.4c-0.4,0.4-0.8,0.6-1.3,0.6H80.1V10.1z M96.6,16.5c0.1,0,0.3-0.1,0.4-0.2c0.1-0.1,0.2-0.3,0.2-0.4v-3.3H83.3
				v3.9H96.6z"/>
			<path class="st0" d="M106,3.7h2.2l-0.9,3.9h1.6V2.7h-4.1V0.1h7.7v2.6h-0.9v4.8h0.9v2.6h-0.9v6.5c0,0.7-0.2,1.3-0.7,1.8
				c-0.5,0.5-1,0.7-1.7,0.7h-1.9l0.8-2.2h0.3c0.2,0,0.3-0.1,0.4-0.2c0.1-0.1,0.2-0.3,0.2-0.4v-6.1h-4.4L106,3.7z M106.4,10.8h2.2
				l-1.8,8.3h-2.2L106.4,10.8z M114.2,0.1h3.1l-1.7,4.1h0.7v14.9h-2.8V5.2H112L114.2,0.1z M116.8,16.5h3.4v-2.4h-3.4v-2.6h3.4V9.1
				h-3.4V6.5h3.4V4.2h-3.4V1.6h3.3l-0.6-1.5h3.3l0.6,1.5h3.2v2.6h-3.3v2.4h3.3v2.6h-3.3v2.4h3.3v2.6h-3.3v2.4h3.3v2.6h-9.8V16.5z"/>
		</g>
	</g>
	<rect x="27.4" y="18" transform="matrix(-1 -1.224647e-16 1.224647e-16 -1 68.6178 54)" class="st0" width="13.8" height="18"/>
	<rect transform="matrix(-1 -1.224647e-16 1.224647e-16 -1 13.8461 36)" class="st0" width="13.8" height="36"/>
	<path class="st0" d="M36.5,21.3l4.7-3.3V1h-2.1c-4.2,8.5-14.4,16.3-26.1,16.3v1.8H32L36.5,21.3z"/>
	<path class="st0" d="M64.7,23.8v10.4c0,0.8-0.6,1.4-1.4,1.4h0c-0.8,0-1.4-0.6-1.4-1.4v-4.1h-5v4.1c0,0.8-0.6,1.4-1.4,1.4h0
		c-0.8,0-1.4-0.6-1.4-1.4V23.8c0-0.8,0.6-1.4,1.4-1.4h0c0.8,0,1.4,0.6,1.4,1.4v4h5v-4c0-0.8,0.6-1.4,1.4-1.4h0
		C64.1,22.4,64.7,23,64.7,23.8z"/>
	<path class="st0" d="M69.5,29.8L66,24.5c-0.6-0.9,0.1-2.1,1.1-2.1l0,0c0.5,0,0.9,0.3,1.1,0.7l2.6,4.5l2.7-4.5
		c0.2-0.4,0.7-0.6,1.1-0.6h0c1.1,0,1.7,1.2,1.1,2.1l-3.6,5.4v4.3c0,0.7-0.6,1.4-1.3,1.4h-0.1c-0.7,0-1.3-0.6-1.3-1.4V29.8z"/>
	<path class="st0" d="M78.6,22.4L78.6,22.4c0.8,0,1.4,0.6,1.4,1.4v6c0,0.9,0.1,1.6,0.1,1.9c0.1,0.6,0.4,1,0.9,1.2
		c0.5,0.2,1.3,0.3,2.5,0.3H85c0.6,0,1.2,0.5,1.2,1.2v0c0,0.7-0.5,1.2-1.2,1.2h-1.8c-1.4,0-2.4-0.1-3-0.2c-1.4-0.4-2.3-1.3-2.7-2.8
		c-0.1-0.6-0.2-1.5-0.2-2.8v-6C77.3,23,77.9,22.4,78.6,22.4z"/>
	<path class="st0" d="M92.8,27.7h4c0.7,0,1.2,0.5,1.2,1.2v5c0,0.9-0.7,1.6-1.6,1.6h-4.2c-1,0-1.8-0.1-2.4-0.2
		c-0.6-0.2-1.1-0.4-1.6-0.8c-1.4-1.1-2-2.9-2-5.5c0-1.7,0.3-3.1,1-4.3c0.5-0.8,1.1-1.4,2-1.8c0.8-0.4,1.9-0.6,3.2-0.6h4.5
		c0.6,0,1.2,0.5,1.2,1.2v0c0,0.7-0.5,1.2-1.2,1.2h-4.2c-1.2,0-2,0.3-2.5,0.8c-0.6,0.6-0.9,1.7-0.9,3.3c0,0.8,0.1,1.5,0.2,2.2
		c0.2,0.6,0.4,1.1,0.7,1.4c0.2,0.3,0.6,0.5,1,0.6c0.4,0.1,1,0.2,1.6,0.2h2.5v-3.1h-2.5c-0.6,0-1.2-0.5-1.2-1.2v0
		C91.7,28.3,92.2,27.7,92.8,27.7z"/>
	<path class="st0" d="M110.1,23.5L110.1,23.5c0,0.7-0.5,1.2-1.2,1.2h-2.4c-0.9,0-1.6,0.1-2,0.2c-0.4,0.1-0.8,0.4-1.1,0.8
		c-0.2,0.3-0.3,0.5-0.4,0.8c-0.1,0.3-0.1,0.7-0.2,1.3h6.1c0.6,0,1.2,0.5,1.2,1.2v0c0,0.7-0.5,1.2-1.2,1.2h-6.1
		c0.1,1.1,0.4,1.9,1,2.4c0.6,0.4,1.5,0.7,2.8,0.7h2.3c0.6,0,1.2,0.5,1.2,1.2v0c0,0.7-0.5,1.2-1.2,1.2h-2.4c-1,0-1.8-0.1-2.6-0.2
		c-1.2-0.2-2.1-0.7-2.8-1.6c-1-1.2-1.5-2.9-1.5-4.9c0-2.3,0.7-4.1,2.1-5.4c0.5-0.4,1-0.7,1.5-0.9c0.5-0.2,1.3-0.3,2.2-0.3h3.5
		C109.5,22.4,110.1,22.9,110.1,23.5z"/>
	<ellipse class="st0" cx="124.4" cy="23.4" rx="2.2" ry="2.3"/>
	<path class="st0" d="M124.4,26.6c-0.6,0-1.2-0.2-1.7-0.5V30l-3-7c-0.3-0.8-1.1-1.3-1.9-1.3h0c-0.8,0-1.6,0.5-1.9,1.3l-4.3,10.2
		c-0.5,1.2,0.3,2.4,1.6,2.4l0,0c0.7,0,1.3-0.4,1.6-1.1l3-7.2l2.7,6.5c0.5,1.1,1.5,1.8,2.7,1.8l0,0c1.6,0,2.9-1.3,2.9-3v-6.5
		C125.6,26.4,125,26.6,124.4,26.6z"/>
</g>
</svg>
